<svg width="992" height="151" viewBox="0 0 992 151" fill="none" xmlns="http://www.w3.org/2000/svg">
<path d="M139.101 73.0429C142.46 73.0429 145.259 76.0374 145.259 79.4063C145.259 82.5879 142.833 85.3953 139.661 85.5825C134.248 86.1439 133.689 87.8283 133.689 93.6302V106.731C133.689 112.72 133.875 126.57 134.062 137.612C134.062 141.542 130.889 144.724 127.157 144.724C124.731 144.724 122.491 143.788 121.185 141.917L116.146 134.805C114.839 133.12 112.973 132.185 110.92 132.185C109.614 132.185 108.308 132.559 107.188 133.307C91.3247 143.975 76.768 145.473 63.7043 145.473C23.9533 145.473 0.251953 115.153 0.251953 76.9732C0.251953 33.3657 29.9252 3.98206 74.1553 3.98206C84.0464 3.98206 102.149 5.47932 111.107 9.0353C110.92 5.29216 112.973 2.11049 116.892 2.11049C119.505 2.11049 121.931 3.98206 122.491 6.78941L134.808 61.4392C135.368 64.2466 134.062 67.0539 131.636 68.364C130.703 68.9255 129.769 69.1126 128.65 69.1126C126.41 69.1126 124.171 67.8026 123.051 65.5567C108.681 37.1088 95.6171 17.2702 75.4617 17.2702C67.9967 17.2702 46.3482 17.2702 46.3482 76.9732C46.3482 90.4485 46.7214 131.81 67.6234 131.81C76.5814 131.81 85.3528 123.388 90.5783 112.72V95.3146C90.5783 88.0155 85.9126 85.9568 79.3808 85.5825C76.2082 85.3953 73.5954 82.7751 73.5954 79.4063C73.5954 75.8503 76.3948 73.0429 79.754 73.0429C90.0184 73.2301 100.096 73.7916 110.36 73.7916C119.878 73.7916 129.583 73.2301 139.101 73.0429Z" fill="#54340E"/>
<path d="M203.692 131.997C206.864 132.372 209.29 134.992 209.29 138.174C209.29 141.73 206.491 144.537 202.945 144.537C193.801 144.537 184.843 143.788 175.511 143.788C166.18 143.788 156.662 144.537 147.331 144.537C143.785 144.537 140.986 141.73 140.986 138.174C140.986 134.992 143.412 132.372 146.771 131.997C150.317 131.623 152.557 129.751 152.557 123.95V25.6923C152.557 21.3876 150.317 18.0188 146.771 17.8317C143.412 17.4574 140.986 14.8372 140.986 11.4683C140.986 8.09951 143.785 5.29216 147.331 5.29216C156.476 5.29216 165.62 6.04078 174.765 6.04078C184.096 6.04078 193.614 5.29216 202.945 5.29216C206.491 5.29216 209.29 8.09951 209.29 11.4683C209.29 14.8372 206.864 17.4574 203.692 17.8317C199.959 18.0188 197.72 20.0776 197.72 25.6923V123.95C197.72 128.441 199.959 131.623 203.692 131.997Z" fill="#54340E"/>
<path d="M339.604 5.105C342.963 5.105 345.576 7.91236 345.576 11.2812C345.576 14.65 342.963 17.2702 339.791 17.4574C333.819 18.0188 327.287 24.3822 316.463 51.1456L279.324 141.542C278.578 143.414 276.712 144.724 274.659 144.724H267.194C264.954 144.724 263.088 143.414 262.341 141.542L216.618 30.9326C212.699 21.5748 210.833 17.8317 206.541 17.4574C203.368 17.2702 200.942 14.4628 200.942 11.2812C200.942 7.91236 203.741 5.105 207.287 5.105C217.365 5.105 227.256 5.85362 237.334 5.85362C248.531 5.85362 259.729 5.105 270.926 5.105C274.472 5.105 277.271 7.91236 277.271 11.2812C277.271 14.65 274.472 17.4574 271.113 17.4574C262.528 17.8317 262.341 24.5693 263.834 28.1253L287.536 86.5182L301.346 52.6428C306.571 39.729 311.61 18.206 291.268 17.4574C287.909 17.4574 285.11 14.65 285.11 11.2812C285.11 7.91236 287.909 5.105 291.455 5.105C300.599 5.105 309.744 5.85362 319.075 5.85362C325.794 5.85362 332.699 5.105 339.604 5.105Z" fill="#54340E"/>
<path d="M461.681 92.6944C464.854 93.443 466.72 96.8119 465.787 99.8064L450.857 146.783C450.297 149.029 448.244 150.526 445.818 150.526C442.459 150.526 439.846 147.344 440.593 143.975L440.779 143.788H342.615C339.256 143.788 336.456 140.981 336.456 137.612C336.456 134.43 338.882 131.623 342.055 131.249C347.654 130.687 348.027 129.19 348.027 123.201C348.027 123.201 348.027 42.5364 348.027 26.4409C348.027 20.2647 347.654 18.9546 342.055 18.3931C338.882 18.0188 336.456 15.2115 336.456 12.0298C336.456 8.66097 339.256 5.85362 342.615 5.85362H437.793C437.98 3.04627 439.846 0.613233 442.646 0.0517702C445.445 -0.32255 448.431 1.36186 449.178 4.16921L462.801 49.0869C463.734 51.8942 462.428 55.0759 459.629 56.386C458.695 56.7603 457.762 56.9475 457.016 56.9475C455.149 56.9475 453.283 56.1988 452.163 54.5144C445.258 45.1566 438.353 34.6758 429.582 27.751C423.05 22.5106 415.585 19.1418 406.254 19.1418H396.549C393.377 19.1418 393.003 20.2647 393.003 23.4464V68.9255C405.881 68.9255 414.279 61.2521 415.398 48.7126C415.585 45.5309 418.198 43.0978 421.744 43.0978C425.849 43.0978 427.902 45.5309 427.902 48.3382C427.902 48.5254 427.156 70.6099 427.156 75.6631C427.156 80.9035 427.902 96.999 427.902 102.427C427.902 106.357 425.29 108.228 421.557 108.228C417.078 108.228 415.585 105.234 415.398 102.427C414.652 89.5128 406.254 82.4008 393.003 82.4008V126.195C393.003 129.377 393.377 130.313 396.549 130.313H409.613C427.529 130.313 446.192 108.041 455.709 94.9403C456.829 93.443 458.509 92.5072 460.375 92.5072C460.748 92.5072 461.308 92.5073 461.681 92.6944Z" fill="#54340E"/>
<path d="M599.577 88.2027C602.75 89.1384 604.43 92.5072 603.31 95.5018C594.165 122.827 569.717 143.414 539.298 143.414C497.867 143.414 469.5 113.282 469.5 72.1072C469.5 30.184 498.8 1.92332 542.284 1.92332C552.361 1.92332 570.277 3.42058 579.235 6.97656V6.4151C579.049 3.04628 581.661 0.0517702 585.021 0.0517702C587.82 0.0517702 590.06 1.92334 590.619 4.73068L602.937 59.3805C603.497 62.1878 602.19 64.9952 599.764 66.3053C598.831 66.8668 597.898 67.0539 596.778 67.0539C594.539 67.0539 592.299 65.7438 591.179 63.4979C576.996 35.0501 563.745 15.2115 543.59 15.2115C526.234 15.2115 514.663 33.3657 514.663 60.5034C514.663 93.2559 531.646 113.469 559.266 113.469C574.57 113.469 586.327 104.86 592.672 91.1971C593.605 89.1384 595.472 87.8283 597.711 87.8283C598.271 87.8283 599.018 88.0155 599.577 88.2027Z" fill="#54340E"/>
<path d="M652.523 84.2724L641.886 59.3805L631.062 84.2724H652.523ZM724.747 130.126C728.106 130.313 730.719 132.933 730.719 136.302C730.719 139.671 727.92 142.665 724.561 142.665C715.043 142.665 705.525 141.917 696.007 141.917C684.25 141.917 672.492 142.665 660.735 142.665C657.189 142.665 654.39 139.671 654.39 136.115C654.39 132.933 656.629 130.126 659.615 129.564C664.467 128.629 671.372 127.88 667.827 119.645L658.495 97.7476H625.649C624.53 100.368 623.783 103.175 623.223 105.608C619.864 118.148 621.73 129.751 636.847 130.126C640.393 130.313 643.192 133.495 642.819 137.238C642.446 140.419 639.646 142.665 636.474 142.665C626.769 142.665 616.878 141.917 607.174 141.917C600.642 141.917 594.11 142.665 587.578 142.665C583.846 142.665 581.046 137.986 582.912 133.869C584.032 131.623 586.272 130.313 588.511 130.126C594.11 129.564 600.268 123.014 611.653 96.4376L650.471 6.22793C651.217 4.16922 653.27 3.04626 655.323 3.04626H662.788C664.841 3.04626 666.707 4.16922 667.453 6.22793L716.349 119.832C720.268 129.19 722.321 130.126 724.747 130.126Z" fill="#54340E"/>
<path d="M777.361 21.3876V68.7383H783.706C798.076 68.7383 799.569 50.7713 799.569 42.9107C799.569 35.2372 798.076 17.2702 783.706 17.2702H782.026C778.48 17.2702 777.361 18.206 777.361 21.3876ZM973.317 101.678C980.595 101.678 987.5 106.544 987.5 115.715C987.5 137.799 932.259 149.216 900.346 149.216C837.64 149.216 811.14 127.693 797.329 103.924L784.079 82.2136H777.361V119.645C777.361 126.944 782.026 129.19 790.238 129.939C793.597 130.126 796.023 132.933 796.023 136.115C796.023 139.671 793.224 142.478 789.678 142.478C778.294 142.478 766.723 141.729 755.152 141.729C745.821 141.729 736.303 142.478 726.972 142.478C723.426 142.478 720.627 139.671 720.627 136.115C720.627 132.933 723.053 130.126 726.412 129.939C729.958 129.564 732.198 127.506 732.198 121.891V24.3822C732.198 18.3931 731.824 16.8959 726.226 16.3344C723.053 16.1472 720.627 13.3399 720.627 9.97107C720.627 6.60225 723.426 3.79489 726.785 3.79489H787.252C813.006 3.79489 845.665 11.8426 845.665 43.8465C845.665 57.6961 840.253 68.9255 826.63 75.476L828.682 79.032C843.612 108.79 859.102 139.858 900.906 139.858C941.217 139.858 949.055 101.678 973.317 101.678Z" fill="#54340E"/>
<path d="M905.45 20.984C897.814 22.7644 896.813 33.3727 898.677 43.1204L917.039 38.8389C918.857 38.415 920.13 38.1183 918.868 32.6487C917.313 25.9029 912.904 19.246 905.45 20.984ZM928.444 110.723C898.266 117.76 866.231 104.288 858.831 72.2002C852.145 43.2115 870.496 16.4541 902.451 8.81103C925.358 3.46978 956.83 10.3484 962.2 36.9542C962.831 39.689 960.972 42.4279 958.245 43.0638L901.341 56.3321L901.467 56.8791C904.453 69.8238 914.545 87.8354 935.634 82.9181C945.451 80.629 953.699 72.3658 958.017 63.6741C958.771 61.9612 960.421 60.808 962.057 60.4265C962.966 60.2146 963.917 60.1849 964.91 60.3376C968.561 61.2155 970.604 63.4288 969.809 67.4567C966.21 86.7397 950.079 105.679 928.444 110.723Z" fill="#54340E"/>
<path d="M976 84H981.76V85.572H979.696V92.4H978.052V85.572H976V84Z" fill="#54340E"/>
<path d="M991.762 84V92.4H990.154V85.188L988.198 92.4H985.882L984.262 86.376L983.95 85.116H983.926L983.95 86.412V92.4H982.378V84H985.33L986.806 89.76L987.094 91.02H987.118L987.406 89.76L988.918 84H991.762Z" fill="#54340E"/>
</svg>
